<svg xmlns="http://www.w3.org/2000/svg" viewBox="0 0 256 256" role="img" aria-label="Boss Mode icon">
  <defs>
    <linearGradient id="g" x1="0" x2="1" y1="0" y2="1">
      <stop offset="0%" stop-color="#7c3aed" />
      <stop offset="100%" stop-color="#38bdf8" />
    </linearGradient>
  </defs>
  <rect width="256" height="256" rx="64" fill="#eef2ff" />
  <rect x="28" y="28" width="200" height="200" rx="52" fill="url(#g)" opacity="0.16" />
  <path d="M83 84h52c30 0 48 14 48 38 0 17-10 28-27 33 20 4 32 17 32 36 0 27-20 45-54 45H83z" fill="#0f172a" />
  <path d="M111 108v37h20c16 0 24-6 24-18 0-13-9-19-25-19zm0 60v40h24c18 0 28-7 28-20 0-13-9-20-27-20z" fill="#ffffff" />
</svg>
